<svg xmlns="http://www.w3.org/2000/svg" width="192" height="191.381" viewBox="0 0 192 191.381"><path fill="#FFF" d="M60 0h72c.04 18.092.12 36.184.086 54.276-.006 3.01.21 4.974 4.146 4.93 18.588-.21 37.18-.162 55.768-.206v72c-17.816.104-35.633.378-53.446.2-4.885-.048-6.638 1.03-6.522 6.295.358 16.318.12 32.648.138 48.974.003 2.432.173 4.57-3.457 4.554-26.32-.098-52.64-.065-78.962-.03-2.16.003-3.542-.572-3.577-3.002-.113-7.992-.518-15.99-.274-23.972.12-3.947 2.32-8.015 6.147-8.903 5.606-1.3 11.95-2.23 17.22.443 11.694 5.933 23.198 2.47 34.656.19 4.116-.818 7.548-4.29 9.974-7.93 2.345-3.52 2.036-6.882-2.022-9.326-6.276-3.78-12.462-7.707-18.725-11.508-3.743-2.272-7.55-4.673-9.518-8.62-4.346-8.72-11.75-13.26-20.49-16.383-7.838-2.8-8.093-3.526-5.832-11.708.98-3.55 2.878-7.02 1.498-10.923-2.86.482-5.405 7.544-7.827-.452-3.562 3.414-5.5 7.484-7.93 11.16-5.762 8.733-12.44 16.328-21.913 21.368-6.947 3.697-12.72 9.07-17.754 15.18C2.505 127.67 2.01 129.46 0 129V59c18.294.1 36.59.083 54.88.39 4.308.074 5.25-1.492 5.21-5.478-.186-17.97-.086-35.94-.09-53.912z"/><path fill="#FFF" d="M0 146c12.31-2.298 20.51-8.904 25.388-20.905 3.43-8.44 12.248-13.268 17.933-21.67l1.03 5.633c2.53-1.01 2.69-4.187 4.947-5.243 1.366 1.158.96 2.627.83 3.798-.468 4.222.97 7.098 4.513 9.713 5.537 4.09 8.172 10.46 10.57 16.663 1.697 4.386-1.693 9.25-6.402 9.99-1.468.233-2.992.107-4.49.146-7.106.184-9.49 2.237-10.516 9.286-.672 4.614-1.174 9.253-1.79 13.875-.125.94.07 2.143-1.08 2.58-1.226.468-1.678-.66-2.344-1.364-3.302-3.488-6.382-7.16-11.588-8.12-2.14-.394-2.605-2.756-3.08-4.766-1.064-4.502-2.55-8.836-5.618-13.074-2.256 3.67-.602 7.414-2.463 11.564-1.877-2.083-3.37-3.935-5.077-5.568-1.15-1.103-2.562-3.003-4.15-2.08-1.805 1.044-.868 3.322-.5 5.03.566 2.648 2.055 4.888 3.62 7.065 2.456 3.42 6.52 6.54 3.536 11.43C10.302 174.845 5.592 176.57 0 176v-30zm40.98 27.407c-1.25 5.74-1.924 10.944-3.598 15.804-1.21 3.51-4.962 1.764-7.438 1.545-2.865-.254-.814-2.555-.643-3.86.873-6.66 6.546-9.296 11.68-13.487z"/></svg>