<?xml version="1.0" encoding="utf-8"?>
<!-- Generator: Adobe Illustrator 17.0.0, SVG Export Plug-In . SVG Version: 6.00 Build 0)  -->
<!DOCTYPE svg PUBLIC "-//W3C//DTD SVG 1.1//EN" "http://www.w3.org/Graphics/SVG/1.1/DTD/svg11.dtd">
<svg version="1.1" id="Layer_1" xmlns="http://www.w3.org/2000/svg" xmlns:xlink="http://www.w3.org/1999/xlink" x="0px" y="0px"
	 width="192px" height="191.381px" viewBox="0 0 192 191.381" enable-background="new 0 0 192 191.381" xml:space="preserve">
<path fill="#FFFFFF" d="M60,0c24,0,48,0,72,0c0.041,18.092,0.121,36.184,0.086,54.276c-0.006,3.009,0.209,4.974,4.146,4.93
	C154.82,58.997,173.411,59.044,192,59c0,24,0,48,0,72c-17.816,0.104-35.633,0.378-53.446,0.201
	c-4.885-0.049-6.638,1.028-6.522,6.294c0.358,16.318,0.121,32.648,0.138,48.974c0.003,2.434,0.173,4.57-3.457,4.556
	c-26.32-0.098-52.641-0.065-78.962-0.03c-2.163,0.003-3.544-0.572-3.579-3.002c-0.113-7.992-0.518-15.991-0.274-23.972
	c0.121-3.948,2.319-8.016,6.148-8.904c5.606-1.3,11.949-2.231,17.22,0.443c11.694,5.933,23.198,2.471,34.656,0.191
	c4.116-0.819,7.548-4.291,9.974-7.932c2.345-3.519,2.036-6.881-2.022-9.325c-6.276-3.779-12.462-7.707-18.725-11.508
	c-3.742-2.272-7.549-4.673-9.517-8.621c-4.346-8.719-11.749-13.26-20.489-16.382c-7.839-2.801-8.094-3.526-5.833-11.708
	c0.981-3.55,2.878-7.021,1.498-10.923c-2.859,0.482-5.405,7.544-7.827-0.452c-3.564,3.414-5.503,7.484-7.93,11.161
	c-5.764,8.732-12.443,16.327-21.915,21.367c-6.947,3.697-12.721,9.071-17.754,15.179C2.505,127.671,2.009,129.462,0,129
	c0-23.333,0-46.667,0-70c18.294,0.101,36.59,0.083,54.88,0.391c4.308,0.073,5.251-1.493,5.21-5.479
	C59.904,35.943,60.004,17.971,60,0z"/>
<path fill="#FFFFFF" d="M0,146c12.311-2.298,20.51-8.904,25.388-20.905c3.43-8.439,12.248-13.268,17.933-21.669
	c0.469,2.57,0.725,3.967,1.029,5.632c2.528-1.011,2.689-4.187,4.946-5.243c1.366,1.158,0.959,2.627,0.83,3.798
	c-0.468,4.222,0.971,7.098,4.513,9.713c5.538,4.09,8.173,10.461,10.571,16.663c1.697,4.388-1.693,9.25-6.402,9.993
	c-1.468,0.232-2.992,0.106-4.49,0.145c-7.106,0.184-9.489,2.237-10.516,9.286c-0.672,4.614-1.174,9.253-1.79,13.875
	c-0.125,0.94,0.07,2.143-1.08,2.581c-1.226,0.467-1.678-0.661-2.344-1.365c-3.302-3.488-6.382-7.161-11.588-8.12
	c-2.14-0.394-2.605-2.756-3.08-4.766c-1.064-4.502-2.549-8.836-5.618-13.074c-2.256,3.67-0.602,7.414-2.463,11.564
	c-1.875-2.083-3.37-3.935-5.075-5.568c-1.15-1.102-2.562-3.002-4.151-2.081c-1.804,1.046-0.867,3.324-0.5,5.033
	c0.567,2.647,2.056,4.887,3.62,7.064c2.457,3.421,6.522,6.54,3.537,11.43C10.303,174.844,5.593,176.571,0,176C0,166,0,156,0,146z"/>
<path fill="#FFFFFF" d="M40.981,173.407c-1.251,5.739-1.925,10.944-3.599,15.804c-1.209,3.508-4.962,1.762-7.438,1.543
	c-2.865-0.254-0.814-2.555-0.643-3.861C30.172,180.234,35.845,177.598,40.981,173.407z"/>
</svg>
